<?xml version="1.0" encoding="UTF-8"?>
<svg xmlns="http://www.w3.org/2000/svg" xmlns:xlink="http://www.w3.org/1999/xlink" width="1876pt" height="395pt" viewBox="0 0 1876 395" version="1.1">
<g id="surface1">
<path style=" stroke:none;fill-rule:nonzero;fill:rgb(65.499878%,66.299438%,67.498779%);fill-opacity:1;" d="M 940.496094 371.730469 L 919.21875 394.082031 L 792.035156 394.078125 L 743.355469 358.546875 L 741.3125 358.550781 L 741.3125 393.988281 L 678.617188 394.328125 L 678.613281 386.878906 L 658.476563 394.074219 L 552.332031 394.210938 C 552.265625 356.714844 552.214844 319.269531 552.203125 281.796875 L 657.652344 281.8125 L 674.632813 286.203125 L 674.628906 281.726563 L 803.136719 281.8125 L 862.269531 281.800781 L 862.273438 337.125 L 883.105469 337.132813 L 883.085938 281.8125 L 925.175781 281.804688 L 925.175781 281.753906 L 1069.988281 281.753906 L 1069.988281 281.8125 L 1192.839844 281.898438 L 1193.070313 331.914063 L 1187.21875 331.929688 L 1187.269531 345.316406 L 1192.960938 345.328125 L 1193 394.148438 L 1050.800781 394.015625 L 1051.03125 334.476563 L 1028.371094 334.476563 L 1028.371094 394.09375 L 967.445313 394.09375 L 967.445313 334.476563 L 944.367188 334.476563 L 944.371094 367.65625 Z M 1861.238281 394.25 L 1748.230469 394.148438 C 1702.53125 394.160156 1656.839844 394.167969 1611.140625 394.195313 L 1611.140625 394.1875 L 1604.03125 394.1875 L 1555.261719 358.484375 L 1553.28125 358.488281 L 1553.269531 394.1875 L 1490.589844 394.1875 L 1490.578125 383.089844 L 1479.46875 394.195313 L 1387.53125 394.195313 L 1361.648438 368.316406 L 1361.648438 362.6875 L 1299.808594 362.789063 C 1299.851563 368.53125 1299.878906 374.28125 1299.878906 380.078125 L 1299.890625 394.21875 L 1239.96875 394.125 L 1240.398438 282.195313 L 1382.011719 282.296875 L 1382.039063 287.5 L 1387.53125 282 L 1479.46875 282 L 1486.601563 289.128906 L 1486.601563 282.3125 L 1631.46875 282.269531 L 1631.519531 294.21875 L 1644.691406 282.28125 L 1733.601563 282.277344 L 1733.601563 282.195313 L 1875.210938 282.296875 L 1875.441406 332.3125 L 1869.589844 332.328125 L 1869.640625 345.714844 L 1875.328125 345.726563 L 1875.371094 394.261719 Z M 1733.390625 337.335938 L 1733.398438 334.3125 L 1675.03125 334.289063 L 1675.019531 337.304688 Z M 1444.308594 333.820313 L 1422.699219 333.820313 L 1422.699219 337.769531 L 1444.308594 337.769531 L 1444.308594 333.820313 "/>
<path style=" stroke:none;fill-rule:evenodd;fill:rgb(13.699341%,12.199402%,12.5%);fill-opacity:1;" d="M 913.140625 379.964844 L 930.253906 361.984375 L 930.246094 295.921875 L 897.210938 295.925781 L 897.230469 351.253906 L 848.15625 351.238281 L 848.152344 295.917969 L 815.261719 295.925781 L 815.179688 361.992188 L 793.605469 346.054688 L 805.675781 346.023438 L 805.445313 295.929688 L 688.753906 295.851563 L 688.757813 316.953125 L 773.25 316.96875 L 773.21875 323.730469 L 692.695313 323.847656 L 692.726563 380.132813 L 727.195313 379.945313 L 727.195313 344.441406 L 747.9375 344.425781 L 796.621094 379.960938 Z M 596.316406 350.363281 L 651.265625 350.457031 L 651.230469 359.761719 L 596.28125 359.777344 Z M 650.957031 327.824219 L 566.335938 327.90625 L 566.425781 380.074219 L 655.878906 379.960938 L 680.421875 371.191406 L 680.394531 346.175781 L 655.832031 339.546875 L 680.441406 333.261719 L 680.296875 302.257813 L 655.824219 295.929688 L 566.328125 295.917969 L 566.332031 318.328125 L 650.941406 318.421875 Z M 1064.96875 379.910156 L 1178.871094 380.015625 L 1178.859375 359.417969 L 1096.511719 359.253906 L 1096.429688 348.296875 L 1173.160156 348.167969 L 1173.089844 327.40625 L 1096.460938 327.34375 L 1096.359375 318.089844 L 1178.890625 317.839844 L 1178.789063 296.007813 L 1065.300781 295.925781 Z M 1055.820313 320.304688 L 1014.191406 320.304688 L 1014.191406 379.921875 L 981.617188 379.921875 L 981.617188 320.304688 L 939.347656 320.304688 L 939.347656 295.925781 L 1055.820313 295.925781 Z M 1747.339844 380.027344 L 1861.238281 380.132813 L 1861.230469 359.816406 L 1778.878906 359.652344 L 1778.800781 348.695313 L 1855.53125 348.566406 L 1855.460938 327.804688 L 1778.828125 327.742188 L 1778.730469 318.488281 L 1861.261719 318.238281 L 1861.160156 296.40625 L 1747.671875 296.324219 Z M 1625.308594 380.070313 L 1627.539063 380.066406 L 1738.378906 380.03125 L 1738.300781 351.457031 L 1660.871094 351.417969 L 1660.949219 320.164063 L 1738.371094 320.199219 L 1738.300781 296.398438 L 1650.128906 296.398438 L 1627.539063 316.890625 L 1627.539063 362.152344 L 1605.570313 345.992188 L 1617.640625 345.960938 L 1617.421875 296.394531 L 1500.71875 296.425781 L 1500.730469 316.890625 L 1585.21875 316.90625 L 1585.191406 323.667969 L 1504.671875 323.78125 L 1504.699219 380.070313 L 1539.160156 380.070313 L 1539.160156 344.378906 L 1559.910156 344.363281 L 1608.679688 380.070313 L 1625.308594 380.066406 Z M 1254.140625 380.027344 L 1285.761719 380.078125 C 1285.75 369.585938 1285.671875 359.171875 1285.601563 348.695313 L 1362.328125 348.566406 L 1362.261719 327.804688 L 1285.628906 327.742188 L 1285.53125 318.488281 L 1368.058594 318.238281 L 1367.960938 296.40625 L 1254.46875 296.324219 Z M 1408.53125 319.648438 L 1458.480469 319.648438 L 1458.480469 351.941406 L 1408.53125 351.941406 Z M 1393.398438 296.171875 L 1473.601563 296.171875 L 1491.179688 313.75 L 1491.179688 362.449219 L 1473.601563 380.023438 L 1393.398438 380.023438 L 1375.828125 362.449219 L 1375.828125 313.75 L 1393.398438 296.171875 "/>
<path style=" stroke:none;fill-rule:evenodd;fill:rgb(13.699341%,12.199402%,12.5%);fill-opacity:1;" d="M 811.65625 175.816406 C 820.742188 175.816406 833.714844 172.96875 833.464844 162.4375 C 832.8125 132.828125 741.414063 158.628906 741.332031 100.839844 C 741.289063 65.785156 777.703125 54.691406 808.636719 54.691406 C 840.992188 54.691406 879.023438 58.996094 882.429688 98.5625 L 830.328125 98.5625 C 829.769531 93.722656 827.777344 90.308594 824.660156 87.746094 C 821.535156 85.183594 815.738281 84.046875 811.191406 84.046875 C 800.972656 84.046875 794.445313 87.175781 794.445313 94.578125 C 794.445313 115.359375 886.964844 93.121094 886.847656 156.691406 C 886.792969 185.949219 863.882813 207.484375 809.378906 207.234375 C 777.53125 207.09375 741.289063 196.523438 741.414063 155.273438 L 790.164063 155.273438 C 791.671875 163.773438 796.304688 174.601563 811.65625 175.816406 "/>
<path style=" stroke:none;fill-rule:evenodd;fill:rgb(13.699341%,12.199402%,12.5%);fill-opacity:1;" d="M 1221.148438 205.023438 L 1221.148438 59.980469 L 1276.070313 59.980469 L 1276.070313 205.023438 L 1221.148438 205.023438 "/>
<path style=" stroke:none;fill-rule:evenodd;fill:rgb(13.699341%,12.199402%,12.5%);fill-opacity:1;" d="M 1221.148438 1.003906 L 1276.070313 1.003906 L 1276.070313 38.488281 L 1221.148438 38.488281 L 1221.148438 1.003906 "/>
<path style=" stroke:none;fill-rule:evenodd;fill:rgb(13.699341%,12.199402%,12.5%);fill-opacity:1;" d="M 470.691406 133.109375 L 491.925781 204.003906 L 545.933594 204.003906 L 595.550781 56.898438 L 537.929688 56.898438 L 515.230469 132.628906 L 516.203125 132.628906 L 493.21875 56.898438 L 445.394531 56.898438 L 422.398438 132.628906 L 421.835938 132.628906 L 399.125 56.898438 L 341.515625 56.898438 L 391.121094 204.003906 L 448.742188 204.003906 L 469.96875 133.109375 L 470.691406 133.109375 "/>
<path style=" stroke:none;fill-rule:evenodd;fill:rgb(13.699341%,12.199402%,12.5%);fill-opacity:1;" d="M 0.964844 0.984375 L 0.964844 203.652344 L 59.578125 203.652344 L 59.578125 143.832031 L 79.117188 122.6875 L 132.59375 203.652344 L 204.574219 203.652344 L 122.308594 80.402344 L 196.351563 0.984375 L 119.222656 0.984375 L 59.578125 63.898438 L 59.578125 0.984375 L 0.964844 0.984375 "/>
<path style=" stroke:none;fill-rule:evenodd;fill:rgb(13.699341%,12.199402%,12.5%);fill-opacity:1;" d="M 1112.308594 163.871094 L 1112.308594 205.199219 L 1055.851563 205.199219 L 1055.851563 0.230469 L 1112.308594 0.230469 L 1112.308594 101.066406 L 1147.488281 60.160156 L 1207.710938 60.160156 L 1159.351563 114.339844 L 1215.839844 205.199219 L 1153.628906 205.199219 L 1122.871094 155.347656 L 1112.308594 163.871094 "/>
<path style=" stroke:none;fill-rule:evenodd;fill:rgb(13.699341%,12.199402%,12.5%);fill-opacity:1;" d="M 347.640625 183.109375 L 347.640625 113.363281 C 347.640625 80.097656 335.949219 55.414063 277.109375 55.710938 C 224.371094 55.984375 205.089844 74.296875 201.59375 105.300781 L 252.1875 105.300781 C 255.222656 89.769531 269.816406 87.171875 278.046875 87.171875 C 284.292969 87.171875 295.800781 88.597656 295.800781 99.414063 C 295.800781 127.308594 197.378906 108.074219 196.625 163.289063 C 196.636719 194.316406 216.96875 207.234375 245.070313 207.234375 C 267.210938 207.234375 281.445313 204.257813 296.613281 193.984375 L 303.308594 205.023438 L 350.195313 205.023438 L 350.195313 203.214844 C 347.257813 198.066406 347.777344 189.296875 347.640625 183.109375 Z M 269.695313 174.785156 C 258.132813 176.023438 249.425781 171.796875 249.425781 164.394531 L 249.425781 164.320313 C 249.425781 144.960938 273.429688 147.199219 292.726563 137.800781 C 294.148438 158.296875 289.679688 172.644531 269.695313 174.785156 "/>
<path style=" stroke:none;fill-rule:evenodd;fill:rgb(13.699341%,12.199402%,12.5%);fill-opacity:1;" d="M 1045.839844 183.109375 L 1045.839844 113.363281 C 1045.839844 80.097656 1034.140625 55.414063 975.304688 55.710938 C 922.574219 55.984375 903.296875 74.296875 899.785156 105.300781 L 950.390625 105.300781 C 953.421875 89.769531 968.015625 87.171875 976.25 87.171875 C 982.492188 87.171875 994 88.597656 994 99.414063 C 994 127.308594 895.582031 108.074219 894.828125 163.289063 C 894.839844 194.316406 915.175781 207.234375 943.269531 207.234375 C 965.40625 207.234375 979.640625 204.257813 994.816406 193.984375 L 1001.5 205.023438 L 1048.390625 205.023438 L 1048.390625 203.214844 C 1045.460938 198.066406 1045.96875 189.296875 1045.839844 183.109375 Z M 967.898438 174.785156 C 956.324219 176.023438 947.625 171.796875 947.625 164.394531 L 947.625 164.320313 C 947.625 144.960938 971.628906 147.199219 990.925781 137.800781 C 992.347656 158.296875 987.875 172.644531 967.898438 174.785156 "/>
<path style=" stroke:none;fill-rule:evenodd;fill:rgb(13.699341%,12.199402%,12.5%);fill-opacity:1;" d="M 734.167969 183.109375 L 734.167969 113.363281 C 734.167969 80.097656 722.46875 55.414063 663.628906 55.710938 C 610.894531 55.984375 591.617188 74.296875 588.109375 105.300781 L 638.703125 105.300781 C 641.742188 89.769531 656.339844 87.171875 664.570313 87.171875 C 670.8125 87.171875 682.324219 88.597656 682.324219 99.414063 C 682.324219 127.308594 583.902344 108.074219 583.140625 163.289063 C 583.160156 194.316406 603.5 207.234375 631.59375 207.234375 C 653.730469 207.234375 667.964844 204.257813 683.128906 193.984375 L 689.828125 205.023438 L 736.710938 205.023438 L 736.710938 203.214844 C 733.777344 198.066406 734.296875 189.296875 734.167969 183.109375 Z M 656.222656 174.785156 C 644.648438 176.023438 635.949219 171.796875 635.949219 164.394531 L 635.949219 164.320313 C 635.949219 144.960938 659.953125 147.199219 679.25 137.800781 C 680.671875 158.296875 676.199219 172.644531 656.222656 174.785156 "/>
</g>
</svg>
